# xmcd
#
# Track frame offsets:
#	150
#	16553
#	30270
#	47137
#	62948
#	75361
#	91708
#	107417
#	122717
#	140033
#	156436
#	170153
#	187020
#	202831
#	215244
#	231591
#	247300
#	262600
#
# Disc length: 3732 seconds
#
# Revision: 1
# Processed by: cddbd v1.5.2PL0 Copyright (c) Steve Scherf et al.
# Submitted via: audiograbber 1.83.01
#
DISCID=f60e9212
DTITLE=Various Artist - 21003-03
DYEAR=2010
DGENRE=Country
TTITLE0=Alan Jackson - It's Just That Way
TTITLE1=Luke Bryan - Rain Is A Good Thing
TTITLE2=Colt Ford ft Jamey Johnson - Cold Beer
TTITLE3=Darryl Worley - Best Of Both Worlds
TTITLE4=Mark Chesnutt - Going On Later On
TTITLE5=Burns and Poe - Don't Get No Better Than That
TTITLE6=Hank Williams Jr - All The Roads
TTITLE7=Single Tree - Ms What's Her Name
TTITLE8=Nathan Lee Jackson - Desperate Man
TTITLE9=Alan Jackson - It's Just That Way  vcl
TTITLE10=Luke Bryan - Rain Is A Good Thing - vcl
TTITLE11=Colt Ford ft Jamey Johnson - Cold Beer - vcl
TTITLE12=Darryl Worley - Best Of Both Worlds - vcl
TTITLE13=Mark Chesnut - Going On Later On - vcl
TTITLE14=Burns and Poe - Don't Get No Better Than That - vcl
TTITLE15=Hank Williams Jr - All The Roads - vcl
TTITLE16=Single Tree - Ms What's Her Name - vcl
TTITLE17=Nathan Lee Jackson - Desperate Man - vcl
EXTD=
EXTT0=
EXTT1=
EXTT2=
EXTT3=
EXTT4=
EXTT5=
EXTT6=
EXTT7=
EXTT8=
EXTT9=
EXTT10=
EXTT11=
EXTT12=
EXTT13=
EXTT14=
EXTT15=
EXTT16=
EXTT17=
PLAYORDER=
